<?xml version="1.0" encoding="utf-8"?>
<!-- Svg Vector Icons : http://www.onlinewebfonts.com/icon -->
<!DOCTYPE svg PUBLIC "-//W3C//DTD SVG 1.1//EN" "http://www.w3.org/Graphics/SVG/1.1/DTD/svg11.dtd">
<svg version="1.1" xmlns="http://www.w3.org/2000/svg" xmlns:xlink="http://www.w3.org/1999/xlink" x="0px" y="0px" viewBox="0 0 1000 1000" enable-background="new 0 0 1000 1000" xml:space="preserve">
<metadata> Svg Vector Icons : http://www.onlinewebfonts.com/icon </metadata>
<g><g transform="translate(0.000000,511.000000) scale(0.100000,-0.100000)"><path d="M4677.3,5002.7c-742.1-74.2-1237.6-205.9-1819.4-488.3C851.9,3544.8-251.7,1304.1,200.8-879.1C507.2-2363.3,1495.9-3634.5,2858-4297.6C4404.4-5049.3,6257.3-4932,7684-3988.8C9752.4-2624.3,10482.5,23.4,9405.3,2252.1c-699,1445.9-2082.7,2463.3-3681.8,2705.1C5491.3,4993.1,4856.9,5021.8,4677.3,5002.7z M5472.1,2515.4c452.4-86.2,871.4-289.7,1173-569.7l76.6-71.8l114.9,98.1c62.2,52.7,217.8,201.1,342.3,325.6c124.5,126.9,234.6,229.8,244.2,229.8c12,0,19.2-435.7,19.2-969.5V588.3h-969.5c-533.8,0-969.5,7.2-969.5,14.4c0,7.2,150.8,167.6,335.1,359.1c184.3,191.5,335.1,356.7,335.1,368.7c0,45.5-237,220.2-418.9,308.8c-258.5,129.3-454.8,174.8-730.1,177.1c-452.4,0-818.7-153.2-1151.5-483.6c-203.5-203.5-320.8-373.4-418.9-612.8l-47.9-119.7l-399.8-7.2c-464.4-7.2-438.1-28.7-337.5,272.9c227.4,699,773.2,1271.2,1467.4,1534.5C4516.9,2546.5,5067.5,2592,5472.1,2515.4z M4145.9-735.5l-349.5-342.3l153.2-114.9c486-366.3,1029.4-459.6,1587.1-275.3c435.7,143.6,837.9,526.7,1010.2,959.9l45.5,114.9h402.2c316,0,399.8-7.2,399.8-31.1c0-62.2-122.1-387.8-205.9-555.4c-246.6-483.6-629.6-861.8-1122.7-1101.2c-421.3-205.9-567.4-239.4-1065.3-239.4c-356.7,2.4-447.7,9.6-610.4,55c-342.3,95.8-687.1,287.3-1055.7,591.3l-74.2,59.8l-349.5-356.7l-351.9-359.1v969.5v967.1h967.1h969.5L4145.9-735.5z"/></g></g>
</svg>